<mxfile host="app.diagrams.net" agent="Mozilla/5.0 (Windows NT 10.0; Win64; x64) AppleWebKit/537.36 (KHTML, like Gecko) Chrome/135.0.0.0 Safari/537.36" version="26.2.13">
  <diagram name="Página-1" id="zWXQqoCImUa7uYCcetUl">
    <mxGraphModel dx="1313" dy="713" grid="1" gridSize="10" guides="1" tooltips="1" connect="1" arrows="1" fold="1" page="1" pageScale="1" pageWidth="827" pageHeight="1169" math="0" shadow="0">
      <root>
        <mxCell id="0" />
        <mxCell id="1" parent="0" />
        <mxCell id="GLRe6uKypIOMZwNr7LMk-2" style="edgeStyle=orthogonalEdgeStyle;rounded=0;orthogonalLoop=1;jettySize=auto;html=1;exitX=0.5;exitY=1;exitDx=0;exitDy=0;" edge="1" parent="1" source="GLRe6uKypIOMZwNr7LMk-1">
          <mxGeometry relative="1" as="geometry">
            <mxPoint x="210" y="160" as="targetPoint" />
          </mxGeometry>
        </mxCell>
        <mxCell id="GLRe6uKypIOMZwNr7LMk-1" value="Inicio" style="ellipse;whiteSpace=wrap;html=1;" vertex="1" parent="1">
          <mxGeometry x="150" y="50" width="120" height="80" as="geometry" />
        </mxCell>
        <mxCell id="GLRe6uKypIOMZwNr7LMk-4" style="edgeStyle=orthogonalEdgeStyle;rounded=0;orthogonalLoop=1;jettySize=auto;html=1;exitX=0;exitY=0;exitDx=50;exitDy=50;exitPerimeter=0;" edge="1" parent="1" source="GLRe6uKypIOMZwNr7LMk-3">
          <mxGeometry relative="1" as="geometry">
            <mxPoint x="210" y="250" as="targetPoint" />
          </mxGeometry>
        </mxCell>
        <mxCell id="GLRe6uKypIOMZwNr7LMk-3" value="Informe um número" style="shape=display;whiteSpace=wrap;html=1;" vertex="1" parent="1">
          <mxGeometry x="160" y="170" width="100" height="50" as="geometry" />
        </mxCell>
        <mxCell id="GLRe6uKypIOMZwNr7LMk-5" value="&lt;div&gt;&lt;br&gt;&lt;/div&gt;numero1" style="shape=manualInput;whiteSpace=wrap;html=1;" vertex="1" parent="1">
          <mxGeometry x="170" y="240" width="80" height="80" as="geometry" />
        </mxCell>
        <mxCell id="GLRe6uKypIOMZwNr7LMk-6" value="informe outro número" style="shape=display;whiteSpace=wrap;html=1;" vertex="1" parent="1">
          <mxGeometry x="150" y="360" width="100" height="50" as="geometry" />
        </mxCell>
        <mxCell id="GLRe6uKypIOMZwNr7LMk-11" style="edgeStyle=orthogonalEdgeStyle;rounded=0;orthogonalLoop=1;jettySize=auto;html=1;exitX=0.5;exitY=1;exitDx=0;exitDy=0;entryX=0.5;entryY=0;entryDx=0;entryDy=0;" edge="1" parent="1" source="GLRe6uKypIOMZwNr7LMk-7" target="GLRe6uKypIOMZwNr7LMk-10">
          <mxGeometry relative="1" as="geometry" />
        </mxCell>
        <mxCell id="GLRe6uKypIOMZwNr7LMk-7" value="&lt;div&gt;&lt;br&gt;&lt;/div&gt;numero2" style="shape=manualInput;whiteSpace=wrap;html=1;" vertex="1" parent="1">
          <mxGeometry x="154" y="430" width="80" height="80" as="geometry" />
        </mxCell>
        <mxCell id="GLRe6uKypIOMZwNr7LMk-8" style="edgeStyle=orthogonalEdgeStyle;rounded=0;orthogonalLoop=1;jettySize=auto;html=1;exitX=0.5;exitY=1;exitDx=0;exitDy=0;entryX=0.603;entryY=0;entryDx=0;entryDy=0;entryPerimeter=0;" edge="1" parent="1" source="GLRe6uKypIOMZwNr7LMk-5" target="GLRe6uKypIOMZwNr7LMk-6">
          <mxGeometry relative="1" as="geometry" />
        </mxCell>
        <mxCell id="GLRe6uKypIOMZwNr7LMk-9" style="edgeStyle=orthogonalEdgeStyle;rounded=0;orthogonalLoop=1;jettySize=auto;html=1;exitX=0;exitY=0;exitDx=50;exitDy=50;exitPerimeter=0;entryX=0.495;entryY=0.161;entryDx=0;entryDy=0;entryPerimeter=0;" edge="1" parent="1" source="GLRe6uKypIOMZwNr7LMk-6" target="GLRe6uKypIOMZwNr7LMk-7">
          <mxGeometry relative="1" as="geometry" />
        </mxCell>
        <mxCell id="GLRe6uKypIOMZwNr7LMk-12" style="edgeStyle=orthogonalEdgeStyle;rounded=0;orthogonalLoop=1;jettySize=auto;html=1;exitX=0;exitY=0.5;exitDx=0;exitDy=0;entryX=0;entryY=0.5;entryDx=0;entryDy=0;entryPerimeter=0;" edge="1" parent="1" source="GLRe6uKypIOMZwNr7LMk-10" target="GLRe6uKypIOMZwNr7LMk-3">
          <mxGeometry relative="1" as="geometry">
            <mxPoint x="100" y="90" as="targetPoint" />
            <Array as="points">
              <mxPoint x="101" y="570" />
              <mxPoint x="101" y="195" />
            </Array>
          </mxGeometry>
        </mxCell>
        <mxCell id="GLRe6uKypIOMZwNr7LMk-13" value="Não" style="edgeLabel;html=1;align=center;verticalAlign=middle;resizable=0;points=[];" vertex="1" connectable="0" parent="GLRe6uKypIOMZwNr7LMk-12">
          <mxGeometry x="0.0842" relative="1" as="geometry">
            <mxPoint as="offset" />
          </mxGeometry>
        </mxCell>
        <mxCell id="GLRe6uKypIOMZwNr7LMk-14" style="edgeStyle=orthogonalEdgeStyle;rounded=0;orthogonalLoop=1;jettySize=auto;html=1;exitX=1;exitY=0.5;exitDx=0;exitDy=0;" edge="1" parent="1" source="GLRe6uKypIOMZwNr7LMk-10">
          <mxGeometry relative="1" as="geometry">
            <mxPoint x="310" y="180" as="targetPoint" />
            <Array as="points">
              <mxPoint x="291" y="570" />
              <mxPoint x="291" y="180" />
            </Array>
          </mxGeometry>
        </mxCell>
        <mxCell id="GLRe6uKypIOMZwNr7LMk-15" value="Sim" style="edgeLabel;html=1;align=center;verticalAlign=middle;resizable=0;points=[];" vertex="1" connectable="0" parent="GLRe6uKypIOMZwNr7LMk-14">
          <mxGeometry x="0.1109" y="2" relative="1" as="geometry">
            <mxPoint as="offset" />
          </mxGeometry>
        </mxCell>
        <mxCell id="GLRe6uKypIOMZwNr7LMk-10" value="valores são numéricos?" style="rhombus;whiteSpace=wrap;html=1;" vertex="1" parent="1">
          <mxGeometry x="154" y="530" width="80" height="80" as="geometry" />
        </mxCell>
        <mxCell id="GLRe6uKypIOMZwNr7LMk-16" value="informe a operação" style="shape=display;whiteSpace=wrap;html=1;" vertex="1" parent="1">
          <mxGeometry x="320" y="160" width="80" height="40" as="geometry" />
        </mxCell>
        <mxCell id="GLRe6uKypIOMZwNr7LMk-23" style="edgeStyle=orthogonalEdgeStyle;rounded=0;orthogonalLoop=1;jettySize=auto;html=1;exitX=0.5;exitY=1;exitDx=0;exitDy=0;entryX=0.5;entryY=0;entryDx=0;entryDy=0;" edge="1" parent="1" source="GLRe6uKypIOMZwNr7LMk-17" target="GLRe6uKypIOMZwNr7LMk-22">
          <mxGeometry relative="1" as="geometry" />
        </mxCell>
        <mxCell id="GLRe6uKypIOMZwNr7LMk-17" value="&lt;div&gt;&lt;br&gt;&lt;/div&gt;operador" style="shape=manualInput;whiteSpace=wrap;html=1;" vertex="1" parent="1">
          <mxGeometry x="320" y="210" width="80" height="80" as="geometry" />
        </mxCell>
        <mxCell id="GLRe6uKypIOMZwNr7LMk-21" style="edgeStyle=orthogonalEdgeStyle;rounded=0;orthogonalLoop=1;jettySize=auto;html=1;exitX=0;exitY=0;exitDx=40;exitDy=40;exitPerimeter=0;entryX=0.473;entryY=0.161;entryDx=0;entryDy=0;entryPerimeter=0;" edge="1" parent="1" source="GLRe6uKypIOMZwNr7LMk-16" target="GLRe6uKypIOMZwNr7LMk-17">
          <mxGeometry relative="1" as="geometry" />
        </mxCell>
        <mxCell id="GLRe6uKypIOMZwNr7LMk-25" style="edgeStyle=orthogonalEdgeStyle;rounded=0;orthogonalLoop=1;jettySize=auto;html=1;exitX=1;exitY=0.5;exitDx=0;exitDy=0;" edge="1" parent="1" source="GLRe6uKypIOMZwNr7LMk-22">
          <mxGeometry relative="1" as="geometry">
            <mxPoint x="450" y="230" as="targetPoint" />
          </mxGeometry>
        </mxCell>
        <mxCell id="GLRe6uKypIOMZwNr7LMk-26" value="+" style="edgeLabel;html=1;align=center;verticalAlign=middle;resizable=0;points=[];" vertex="1" connectable="0" parent="GLRe6uKypIOMZwNr7LMk-25">
          <mxGeometry x="0.2356" relative="1" as="geometry">
            <mxPoint as="offset" />
          </mxGeometry>
        </mxCell>
        <mxCell id="GLRe6uKypIOMZwNr7LMk-27" style="edgeStyle=orthogonalEdgeStyle;rounded=0;orthogonalLoop=1;jettySize=auto;html=1;exitX=1;exitY=1;exitDx=0;exitDy=0;" edge="1" parent="1" source="GLRe6uKypIOMZwNr7LMk-22">
          <mxGeometry relative="1" as="geometry">
            <mxPoint x="460" y="380" as="targetPoint" />
          </mxGeometry>
        </mxCell>
        <mxCell id="GLRe6uKypIOMZwNr7LMk-28" value="-" style="edgeLabel;html=1;align=center;verticalAlign=middle;resizable=0;points=[];" vertex="1" connectable="0" parent="GLRe6uKypIOMZwNr7LMk-27">
          <mxGeometry x="0.0163" y="-1" relative="1" as="geometry">
            <mxPoint as="offset" />
          </mxGeometry>
        </mxCell>
        <mxCell id="GLRe6uKypIOMZwNr7LMk-31" style="edgeStyle=orthogonalEdgeStyle;rounded=0;orthogonalLoop=1;jettySize=auto;html=1;exitX=0.5;exitY=1;exitDx=0;exitDy=0;" edge="1" parent="1" source="GLRe6uKypIOMZwNr7LMk-22">
          <mxGeometry relative="1" as="geometry">
            <mxPoint x="440" y="440" as="targetPoint" />
          </mxGeometry>
        </mxCell>
        <mxCell id="GLRe6uKypIOMZwNr7LMk-32" value="*" style="edgeLabel;html=1;align=center;verticalAlign=middle;resizable=0;points=[];" vertex="1" connectable="0" parent="GLRe6uKypIOMZwNr7LMk-31">
          <mxGeometry x="0.0662" y="-2" relative="1" as="geometry">
            <mxPoint as="offset" />
          </mxGeometry>
        </mxCell>
        <mxCell id="GLRe6uKypIOMZwNr7LMk-33" style="edgeStyle=orthogonalEdgeStyle;rounded=0;orthogonalLoop=1;jettySize=auto;html=1;exitX=0;exitY=1;exitDx=0;exitDy=0;" edge="1" parent="1" source="GLRe6uKypIOMZwNr7LMk-22">
          <mxGeometry relative="1" as="geometry">
            <mxPoint x="340.2222222222222" y="480" as="targetPoint" />
          </mxGeometry>
        </mxCell>
        <mxCell id="GLRe6uKypIOMZwNr7LMk-34" value="/" style="edgeLabel;html=1;align=center;verticalAlign=middle;resizable=0;points=[];" vertex="1" connectable="0" parent="GLRe6uKypIOMZwNr7LMk-33">
          <mxGeometry x="-0.0425" y="-1" relative="1" as="geometry">
            <mxPoint as="offset" />
          </mxGeometry>
        </mxCell>
        <mxCell id="GLRe6uKypIOMZwNr7LMk-22" value="qual é o operador?" style="rhombus;whiteSpace=wrap;html=1;" vertex="1" parent="1">
          <mxGeometry x="320" y="320" width="80" height="80" as="geometry" />
        </mxCell>
        <mxCell id="GLRe6uKypIOMZwNr7LMk-30" style="edgeStyle=orthogonalEdgeStyle;rounded=0;orthogonalLoop=1;jettySize=auto;html=1;exitX=0.5;exitY=1;exitDx=0;exitDy=0;" edge="1" parent="1" source="GLRe6uKypIOMZwNr7LMk-22" target="GLRe6uKypIOMZwNr7LMk-22">
          <mxGeometry relative="1" as="geometry" />
        </mxCell>
        <mxCell id="GLRe6uKypIOMZwNr7LMk-43" style="edgeStyle=orthogonalEdgeStyle;rounded=0;orthogonalLoop=1;jettySize=auto;html=1;exitX=1;exitY=0.5;exitDx=0;exitDy=0;" edge="1" parent="1" source="GLRe6uKypIOMZwNr7LMk-35" target="GLRe6uKypIOMZwNr7LMk-40">
          <mxGeometry relative="1" as="geometry" />
        </mxCell>
        <mxCell id="GLRe6uKypIOMZwNr7LMk-35" value="somar n1 e n2" style="rounded=1;whiteSpace=wrap;html=1;" vertex="1" parent="1">
          <mxGeometry x="414" y="190" width="70" height="35" as="geometry" />
        </mxCell>
        <mxCell id="GLRe6uKypIOMZwNr7LMk-46" style="edgeStyle=orthogonalEdgeStyle;rounded=0;orthogonalLoop=1;jettySize=auto;html=1;exitX=0.5;exitY=1;exitDx=0;exitDy=0;entryX=0.5;entryY=0;entryDx=0;entryDy=0;" edge="1" parent="1" source="GLRe6uKypIOMZwNr7LMk-36" target="GLRe6uKypIOMZwNr7LMk-39">
          <mxGeometry relative="1" as="geometry" />
        </mxCell>
        <mxCell id="GLRe6uKypIOMZwNr7LMk-36" value="dividir n1 por n2" style="rounded=1;whiteSpace=wrap;html=1;" vertex="1" parent="1">
          <mxGeometry x="310" y="485" width="70" height="35" as="geometry" />
        </mxCell>
        <mxCell id="GLRe6uKypIOMZwNr7LMk-45" style="edgeStyle=orthogonalEdgeStyle;rounded=0;orthogonalLoop=1;jettySize=auto;html=1;exitX=1;exitY=0.5;exitDx=0;exitDy=0;entryX=0;entryY=0.75;entryDx=0;entryDy=0;" edge="1" parent="1" source="GLRe6uKypIOMZwNr7LMk-37" target="GLRe6uKypIOMZwNr7LMk-42">
          <mxGeometry relative="1" as="geometry" />
        </mxCell>
        <mxCell id="GLRe6uKypIOMZwNr7LMk-37" value="multiplicar n1 e n2" style="rounded=1;whiteSpace=wrap;html=1;" vertex="1" parent="1">
          <mxGeometry x="414" y="450" width="70" height="35" as="geometry" />
        </mxCell>
        <mxCell id="GLRe6uKypIOMZwNr7LMk-44" style="edgeStyle=orthogonalEdgeStyle;rounded=0;orthogonalLoop=1;jettySize=auto;html=1;exitX=1;exitY=0.5;exitDx=0;exitDy=0;" edge="1" parent="1" source="GLRe6uKypIOMZwNr7LMk-38" target="GLRe6uKypIOMZwNr7LMk-41">
          <mxGeometry relative="1" as="geometry" />
        </mxCell>
        <mxCell id="GLRe6uKypIOMZwNr7LMk-38" value="subtrair n2 de n1" style="rounded=1;whiteSpace=wrap;html=1;" vertex="1" parent="1">
          <mxGeometry x="470" y="360" width="70" height="35" as="geometry" />
        </mxCell>
        <mxCell id="GLRe6uKypIOMZwNr7LMk-39" value="divisao" style="shape=parallelogram;perimeter=parallelogramPerimeter;whiteSpace=wrap;html=1;fixedSize=1;" vertex="1" parent="1">
          <mxGeometry x="302" y="540" width="86" height="30" as="geometry" />
        </mxCell>
        <mxCell id="GLRe6uKypIOMZwNr7LMk-40" value="adição" style="shape=parallelogram;perimeter=parallelogramPerimeter;whiteSpace=wrap;html=1;fixedSize=1;" vertex="1" parent="1">
          <mxGeometry x="520" y="190" width="86" height="30" as="geometry" />
        </mxCell>
        <mxCell id="GLRe6uKypIOMZwNr7LMk-41" value="subtração" style="shape=parallelogram;perimeter=parallelogramPerimeter;whiteSpace=wrap;html=1;fixedSize=1;" vertex="1" parent="1">
          <mxGeometry x="560" y="365" width="86" height="30" as="geometry" />
        </mxCell>
        <mxCell id="GLRe6uKypIOMZwNr7LMk-55" style="edgeStyle=orthogonalEdgeStyle;rounded=0;orthogonalLoop=1;jettySize=auto;html=1;exitX=1;exitY=0.5;exitDx=0;exitDy=0;" edge="1" parent="1" source="GLRe6uKypIOMZwNr7LMk-42">
          <mxGeometry relative="1" as="geometry">
            <mxPoint x="610" y="467.7777777777777" as="targetPoint" />
          </mxGeometry>
        </mxCell>
        <mxCell id="GLRe6uKypIOMZwNr7LMk-42" value="multiplicação" style="shape=parallelogram;perimeter=parallelogramPerimeter;whiteSpace=wrap;html=1;fixedSize=1;" vertex="1" parent="1">
          <mxGeometry x="510" y="452.5" width="86" height="30" as="geometry" />
        </mxCell>
        <mxCell id="GLRe6uKypIOMZwNr7LMk-61" style="edgeStyle=orthogonalEdgeStyle;rounded=0;orthogonalLoop=1;jettySize=auto;html=1;exitX=0;exitY=0;exitDx=40;exitDy=40;exitPerimeter=0;entryX=0.5;entryY=0;entryDx=0;entryDy=0;" edge="1" parent="1" source="GLRe6uKypIOMZwNr7LMk-47" target="GLRe6uKypIOMZwNr7LMk-57">
          <mxGeometry relative="1" as="geometry" />
        </mxCell>
        <mxCell id="GLRe6uKypIOMZwNr7LMk-47" value="a divisão é divisão" style="shape=display;whiteSpace=wrap;html=1;" vertex="1" parent="1">
          <mxGeometry x="300" y="585" width="80" height="40" as="geometry" />
        </mxCell>
        <mxCell id="GLRe6uKypIOMZwNr7LMk-64" style="edgeStyle=orthogonalEdgeStyle;rounded=0;orthogonalLoop=1;jettySize=auto;html=1;exitX=0;exitY=0;exitDx=40;exitDy=40;exitPerimeter=0;entryX=0.5;entryY=0;entryDx=0;entryDy=0;" edge="1" parent="1" source="GLRe6uKypIOMZwNr7LMk-48" target="GLRe6uKypIOMZwNr7LMk-59">
          <mxGeometry relative="1" as="geometry" />
        </mxCell>
        <mxCell id="GLRe6uKypIOMZwNr7LMk-48" value="a soma é adição" style="shape=display;whiteSpace=wrap;html=1;" vertex="1" parent="1">
          <mxGeometry x="630" y="180" width="80" height="40" as="geometry" />
        </mxCell>
        <mxCell id="GLRe6uKypIOMZwNr7LMk-63" style="edgeStyle=orthogonalEdgeStyle;rounded=0;orthogonalLoop=1;jettySize=auto;html=1;exitX=1;exitY=0.5;exitDx=0;exitDy=0;exitPerimeter=0;entryX=0;entryY=0.5;entryDx=0;entryDy=0;" edge="1" parent="1" source="GLRe6uKypIOMZwNr7LMk-49" target="GLRe6uKypIOMZwNr7LMk-58">
          <mxGeometry relative="1" as="geometry" />
        </mxCell>
        <mxCell id="GLRe6uKypIOMZwNr7LMk-49" value="a subtração é subtração" style="shape=display;whiteSpace=wrap;html=1;" vertex="1" parent="1">
          <mxGeometry x="650" y="360" width="80" height="40" as="geometry" />
        </mxCell>
        <mxCell id="GLRe6uKypIOMZwNr7LMk-50" value="a multiplicação é multiplicação" style="shape=display;whiteSpace=wrap;html=1;" vertex="1" parent="1">
          <mxGeometry x="610" y="440" width="100" height="50" as="geometry" />
        </mxCell>
        <mxCell id="GLRe6uKypIOMZwNr7LMk-51" style="edgeStyle=orthogonalEdgeStyle;rounded=0;orthogonalLoop=1;jettySize=auto;html=1;exitX=1;exitY=0.5;exitDx=0;exitDy=0;entryX=0;entryY=0.625;entryDx=0;entryDy=0;entryPerimeter=0;" edge="1" parent="1" source="GLRe6uKypIOMZwNr7LMk-40" target="GLRe6uKypIOMZwNr7LMk-48">
          <mxGeometry relative="1" as="geometry" />
        </mxCell>
        <mxCell id="GLRe6uKypIOMZwNr7LMk-52" style="edgeStyle=orthogonalEdgeStyle;rounded=0;orthogonalLoop=1;jettySize=auto;html=1;exitX=0.5;exitY=1;exitDx=0;exitDy=0;entryX=0.566;entryY=0.056;entryDx=0;entryDy=0;entryPerimeter=0;" edge="1" parent="1" source="GLRe6uKypIOMZwNr7LMk-39" target="GLRe6uKypIOMZwNr7LMk-47">
          <mxGeometry relative="1" as="geometry" />
        </mxCell>
        <mxCell id="GLRe6uKypIOMZwNr7LMk-56" style="edgeStyle=orthogonalEdgeStyle;rounded=0;orthogonalLoop=1;jettySize=auto;html=1;exitX=1;exitY=0.5;exitDx=0;exitDy=0;entryX=0;entryY=0.5;entryDx=0;entryDy=0;entryPerimeter=0;" edge="1" parent="1" source="GLRe6uKypIOMZwNr7LMk-41" target="GLRe6uKypIOMZwNr7LMk-49">
          <mxGeometry relative="1" as="geometry" />
        </mxCell>
        <mxCell id="GLRe6uKypIOMZwNr7LMk-57" value="fim" style="ellipse;whiteSpace=wrap;html=1;" vertex="1" parent="1">
          <mxGeometry x="310" y="640" width="70" height="30" as="geometry" />
        </mxCell>
        <mxCell id="GLRe6uKypIOMZwNr7LMk-58" value="fim" style="ellipse;whiteSpace=wrap;html=1;" vertex="1" parent="1">
          <mxGeometry x="757" y="365" width="70" height="30" as="geometry" />
        </mxCell>
        <mxCell id="GLRe6uKypIOMZwNr7LMk-59" value="fim" style="ellipse;whiteSpace=wrap;html=1;" vertex="1" parent="1">
          <mxGeometry x="640" y="240" width="70" height="30" as="geometry" />
        </mxCell>
        <mxCell id="GLRe6uKypIOMZwNr7LMk-60" value="fim" style="ellipse;whiteSpace=wrap;html=1;" vertex="1" parent="1">
          <mxGeometry x="635" y="510" width="70" height="30" as="geometry" />
        </mxCell>
        <mxCell id="GLRe6uKypIOMZwNr7LMk-62" style="edgeStyle=orthogonalEdgeStyle;rounded=0;orthogonalLoop=1;jettySize=auto;html=1;exitX=0;exitY=0;exitDx=50;exitDy=50;exitPerimeter=0;entryX=0.36;entryY=0.01;entryDx=0;entryDy=0;entryPerimeter=0;" edge="1" parent="1" source="GLRe6uKypIOMZwNr7LMk-50" target="GLRe6uKypIOMZwNr7LMk-60">
          <mxGeometry relative="1" as="geometry" />
        </mxCell>
      </root>
    </mxGraphModel>
  </diagram>
</mxfile>
